<svg xmlns="http://www.w3.org/2000/svg" width="108.032" height="108.032" viewBox="0 0 640 640">
  <defs>
    <style>
      .cls-1 {
        fill: #03ccd3;
        fill-rule: evenodd;
      }
    </style>
  </defs>
  <path id="Preenchimento_de_Cor_1" data-name="Preenchimento de Cor 1" class="cls-1" d="M220,110c106.749-1.989,190.2,48.6,224,120,15.836,33.449,16.22,123.81-19,135-2.54-114.316-48.934-168.9-126-207l-92-37v-1l12-1-13-7Zm-4,53c64.267-.008,142.133,37.994,165,78-1.889,2.536-1.739-.075-1,3l3,7h-1c-85.114-41.577-181.97-41.548-232,35-12.861,19.677-17.464,46.23-22,74q-0.5,13.5-1,27l-1-2c-37.1-41.828-42.183-154.437,2-191,15.651-12.951,35.762-22.833,59-28Zm59,62c5.695,6.573-.507,27.971,2,43,3.67,22,6.373,42.632,13,62,27.337,79.889,103.084,177.65,197,188-27.852,45.766-90.3,41.529-136,16-51.948-29.021-97.51-80.873-119-140C206.057,322.622,230.233,257.648,275,225Zm197,42c7.142,4.873,10.184,16.83,14,25,15.575,33.346,48.76,110.48,10,144-15.525,13.426-50.51,12.99-73,6-43.962-13.663-89.373-47.706-110-85l3-1c1.8,2.042.015,0.707,3,2l-3-4-1-4c41.312,9.93,143.312,61.552,163-8C485.733,314.681,467.983,288.859,472,267Z"/>
</svg>
